<?xml version="1.0" encoding="UTF-8"?>
<svg width="800" height="600" viewBox="0 0 800 600" fill="none" xmlns="http://www.w3.org/2000/svg">
  <!-- Dashboard Background -->
  <rect width="800" height="600" rx="12" fill="#FFFFFF"/>
  
  <!-- Sidebar -->
  <rect x="0" y="0" width="200" height="600" fill="#F8FAFC"/>
  <rect x="20" y="20" width="160" height="40" rx="8" fill="#E2E8F0"/>
  <rect x="20" y="80" width="160" height="32" rx="6" fill="#F1F5F9"/>
  <rect x="20" y="122" width="160" height="32" rx="6" fill="#F1F5F9"/>
  <rect x="20" y="164" width="160" height="32" rx="6" fill="#F1F5F9"/>
  
  <!-- Main Content -->
  <rect x="220" y="20" width="560" height="80" rx="8" fill="#F1F5F9"/>
  
  <!-- Stats Cards -->
  <rect x="220" y="120" width="270" height="120" rx="8" fill="#EFF6FF"/>
  <rect x="510" y="120" width="270" height="120" rx="8" fill="#EFF6FF"/>
  
  <!-- Chart Area -->
  <rect x="220" y="260" width="560" height="200" rx="8" fill="#F8FAFC"/>
  <path d="M240 400 Q320 320 400 360 T560 300 T720 340" stroke="#3B82F6" stroke-width="3" fill="none"/>
  
  <!-- Table -->
  <rect x="220" y="480" width="560" height="100" rx="8" fill="#F8FAFC"/>
  <line x1="220" y1="520" x2="780" y2="520" stroke="#E2E8F0" stroke-width="1"/>
  <line x1="220" y1="560" x2="780" y2="560" stroke="#E2E8F0" stroke-width="1"/>
  
  <!-- Decorative Elements -->
  <circle cx="400" cy="60" r="16" fill="#3B82F6" opacity="0.2"/>
  <circle cx="450" cy="60" r="16" fill="#3B82F6" opacity="0.2"/>
  <circle cx="500" cy="60" r="16" fill="#3B82F6" opacity="0.2"/>
  
  <!-- Stats Icons -->
  <rect x="240" y="140" width="40" height="40" rx="20" fill="#3B82F6" opacity="0.2"/>
  <rect x="530" y="140" width="40" height="40" rx="20" fill="#3B82F6" opacity="0.2"/>
</svg> 